<mxfile host="app.diagrams.net" modified="2021-09-23T09:02:42.877Z" agent="5.0 (Windows NT 10.0; Win64; x64) AppleWebKit/537.36 (KHTML, like Gecko) Chrome/93.0.4577.82 Safari/537.36" etag="huknrYoz8CI7LS_niR_Y" version="15.3.0" type="github">
  <diagram id="R2lEEEUBdFMjLlhIrx00" name="Page-1">
    <mxGraphModel dx="342" dy="1719" grid="1" gridSize="10" guides="1" tooltips="1" connect="1" arrows="1" fold="1" page="1" pageScale="1" pageWidth="850" pageHeight="1100" math="0" shadow="0" extFonts="Permanent Marker^https://fonts.googleapis.com/css?family=Permanent+Marker">
      <root>
        <mxCell id="0" />
        <mxCell id="1" parent="0" />
        <mxCell id="din8F_Qt1sH1hLo-0JBV-11" value="Course" style="rounded=0;whiteSpace=wrap;html=1;" vertex="1" parent="1">
          <mxGeometry x="2110" y="630" width="170" height="100" as="geometry" />
        </mxCell>
        <mxCell id="din8F_Qt1sH1hLo-0JBV-76" value="User" style="rounded=0;whiteSpace=wrap;html=1;" vertex="1" parent="1">
          <mxGeometry x="1020" y="300" width="170" height="100" as="geometry" />
        </mxCell>
        <mxCell id="din8F_Qt1sH1hLo-0JBV-77" value="Lecturer" style="rounded=0;whiteSpace=wrap;html=1;" vertex="1" parent="1">
          <mxGeometry x="2110" y="170" width="170" height="100" as="geometry" />
        </mxCell>
        <mxCell id="din8F_Qt1sH1hLo-0JBV-78" value="Payment" style="rounded=0;whiteSpace=wrap;html=1;" vertex="1" parent="1">
          <mxGeometry x="1540" y="630" width="170" height="100" as="geometry" />
        </mxCell>
        <mxCell id="din8F_Qt1sH1hLo-0JBV-79" value="Account" style="rounded=0;whiteSpace=wrap;html=1;" vertex="1" parent="1">
          <mxGeometry x="1540" y="300" width="170" height="100" as="geometry" />
        </mxCell>
        <mxCell id="din8F_Qt1sH1hLo-0JBV-81" value="belong to" style="rhombus;whiteSpace=wrap;html=1;" vertex="1" parent="1">
          <mxGeometry x="1300" y="310" width="80" height="80" as="geometry" />
        </mxCell>
        <mxCell id="din8F_Qt1sH1hLo-0JBV-82" value="" style="endArrow=none;html=1;exitX=1;exitY=0.5;exitDx=0;exitDy=0;entryX=0;entryY=0.5;entryDx=0;entryDy=0;" edge="1" parent="1" source="din8F_Qt1sH1hLo-0JBV-76" target="din8F_Qt1sH1hLo-0JBV-81">
          <mxGeometry width="50" height="50" relative="1" as="geometry">
            <mxPoint x="1510" y="450" as="sourcePoint" />
            <mxPoint x="1220" y="350" as="targetPoint" />
          </mxGeometry>
        </mxCell>
        <mxCell id="din8F_Qt1sH1hLo-0JBV-83" value="" style="endArrow=none;html=1;exitX=1;exitY=0.5;exitDx=0;exitDy=0;entryX=0;entryY=0.5;entryDx=0;entryDy=0;" edge="1" parent="1" source="din8F_Qt1sH1hLo-0JBV-81" target="din8F_Qt1sH1hLo-0JBV-79">
          <mxGeometry width="50" height="50" relative="1" as="geometry">
            <mxPoint x="1670" y="450" as="sourcePoint" />
            <mxPoint x="1720" y="400" as="targetPoint" />
          </mxGeometry>
        </mxCell>
        <mxCell id="din8F_Qt1sH1hLo-0JBV-84" value="M" style="text;html=1;strokeColor=none;fillColor=none;align=center;verticalAlign=middle;whiteSpace=wrap;rounded=0;" vertex="1" parent="1">
          <mxGeometry x="1500" y="330" width="40" height="20" as="geometry" />
        </mxCell>
        <mxCell id="din8F_Qt1sH1hLo-0JBV-85" value="1" style="text;html=1;strokeColor=none;fillColor=none;align=center;verticalAlign=middle;whiteSpace=wrap;rounded=0;" vertex="1" parent="1">
          <mxGeometry x="1190" y="330" width="40" height="20" as="geometry" />
        </mxCell>
        <mxCell id="din8F_Qt1sH1hLo-0JBV-86" value="has" style="rhombus;whiteSpace=wrap;html=1;" vertex="1" parent="1">
          <mxGeometry x="1860" y="180" width="80" height="80" as="geometry" />
        </mxCell>
        <mxCell id="din8F_Qt1sH1hLo-0JBV-87" value="" style="endArrow=none;html=1;entryX=0;entryY=0.5;entryDx=0;entryDy=0;exitX=1;exitY=0.5;exitDx=0;exitDy=0;" edge="1" parent="1" source="din8F_Qt1sH1hLo-0JBV-86" target="din8F_Qt1sH1hLo-0JBV-77">
          <mxGeometry width="50" height="50" relative="1" as="geometry">
            <mxPoint x="1780" y="320" as="sourcePoint" />
            <mxPoint x="1830" y="270" as="targetPoint" />
          </mxGeometry>
        </mxCell>
        <mxCell id="din8F_Qt1sH1hLo-0JBV-88" value="" style="endArrow=none;html=1;entryX=0;entryY=0.5;entryDx=0;entryDy=0;exitX=0.75;exitY=0;exitDx=0;exitDy=0;" edge="1" parent="1" source="din8F_Qt1sH1hLo-0JBV-79" target="din8F_Qt1sH1hLo-0JBV-86">
          <mxGeometry width="50" height="50" relative="1" as="geometry">
            <mxPoint x="1880" y="360" as="sourcePoint" />
            <mxPoint x="1940" y="360" as="targetPoint" />
            <Array as="points">
              <mxPoint x="1668" y="220" />
            </Array>
          </mxGeometry>
        </mxCell>
        <mxCell id="din8F_Qt1sH1hLo-0JBV-89" value="" style="endArrow=none;html=1;exitX=0.5;exitY=1;exitDx=0;exitDy=0;entryX=0.5;entryY=0;entryDx=0;entryDy=0;" edge="1" parent="1" source="din8F_Qt1sH1hLo-0JBV-79" target="din8F_Qt1sH1hLo-0JBV-90">
          <mxGeometry width="50" height="50" relative="1" as="geometry">
            <mxPoint x="1780" y="550" as="sourcePoint" />
            <mxPoint x="1830" y="500" as="targetPoint" />
          </mxGeometry>
        </mxCell>
        <mxCell id="din8F_Qt1sH1hLo-0JBV-90" value="has" style="rhombus;whiteSpace=wrap;html=1;" vertex="1" parent="1">
          <mxGeometry x="1585" y="510" width="80" height="80" as="geometry" />
        </mxCell>
        <mxCell id="din8F_Qt1sH1hLo-0JBV-91" value="" style="endArrow=none;html=1;exitX=0.5;exitY=1;exitDx=0;exitDy=0;entryX=0.5;entryY=0;entryDx=0;entryDy=0;" edge="1" parent="1" source="din8F_Qt1sH1hLo-0JBV-90" target="din8F_Qt1sH1hLo-0JBV-78">
          <mxGeometry width="50" height="50" relative="1" as="geometry">
            <mxPoint x="1730" y="620" as="sourcePoint" />
            <mxPoint x="1780" y="570" as="targetPoint" />
          </mxGeometry>
        </mxCell>
        <mxCell id="din8F_Qt1sH1hLo-0JBV-92" value="1" style="text;html=1;strokeColor=none;fillColor=none;align=center;verticalAlign=middle;whiteSpace=wrap;rounded=0;" vertex="1" parent="1">
          <mxGeometry x="1600" y="400" width="40" height="20" as="geometry" />
        </mxCell>
        <mxCell id="din8F_Qt1sH1hLo-0JBV-93" value="M" style="text;html=1;strokeColor=none;fillColor=none;align=center;verticalAlign=middle;whiteSpace=wrap;rounded=0;" vertex="1" parent="1">
          <mxGeometry x="1585" y="610" width="40" height="20" as="geometry" />
        </mxCell>
        <mxCell id="din8F_Qt1sH1hLo-0JBV-94" value="pay" style="rhombus;whiteSpace=wrap;html=1;" vertex="1" parent="1">
          <mxGeometry x="1890" y="640" width="80" height="80" as="geometry" />
        </mxCell>
        <mxCell id="din8F_Qt1sH1hLo-0JBV-95" value="" style="endArrow=none;html=1;exitX=1;exitY=0.5;exitDx=0;exitDy=0;entryX=0;entryY=0.5;entryDx=0;entryDy=0;" edge="1" parent="1" source="din8F_Qt1sH1hLo-0JBV-78" target="din8F_Qt1sH1hLo-0JBV-94">
          <mxGeometry width="50" height="50" relative="1" as="geometry">
            <mxPoint x="1730" y="620" as="sourcePoint" />
            <mxPoint x="1780" y="570" as="targetPoint" />
          </mxGeometry>
        </mxCell>
        <mxCell id="din8F_Qt1sH1hLo-0JBV-96" value="" style="endArrow=none;html=1;exitX=1;exitY=0.5;exitDx=0;exitDy=0;entryX=0;entryY=0.5;entryDx=0;entryDy=0;" edge="1" parent="1" source="din8F_Qt1sH1hLo-0JBV-94" target="din8F_Qt1sH1hLo-0JBV-11">
          <mxGeometry width="50" height="50" relative="1" as="geometry">
            <mxPoint x="1730" y="620" as="sourcePoint" />
            <mxPoint x="1910" y="630" as="targetPoint" />
          </mxGeometry>
        </mxCell>
        <mxCell id="din8F_Qt1sH1hLo-0JBV-97" value="belong to" style="rhombus;whiteSpace=wrap;html=1;" vertex="1" parent="1">
          <mxGeometry x="2155" y="410" width="80" height="80" as="geometry" />
        </mxCell>
        <mxCell id="din8F_Qt1sH1hLo-0JBV-98" value="" style="endArrow=none;html=1;entryX=0.5;entryY=0;entryDx=0;entryDy=0;exitX=0.5;exitY=1;exitDx=0;exitDy=0;" edge="1" parent="1" source="din8F_Qt1sH1hLo-0JBV-97" target="din8F_Qt1sH1hLo-0JBV-11">
          <mxGeometry width="50" height="50" relative="1" as="geometry">
            <mxPoint x="1730" y="620" as="sourcePoint" />
            <mxPoint x="1780" y="570" as="targetPoint" />
          </mxGeometry>
        </mxCell>
        <mxCell id="din8F_Qt1sH1hLo-0JBV-99" value="" style="endArrow=none;html=1;entryX=0.5;entryY=1;entryDx=0;entryDy=0;exitX=0.5;exitY=0;exitDx=0;exitDy=0;" edge="1" parent="1" source="din8F_Qt1sH1hLo-0JBV-97" target="din8F_Qt1sH1hLo-0JBV-77">
          <mxGeometry width="50" height="50" relative="1" as="geometry">
            <mxPoint x="1840" y="420" as="sourcePoint" />
            <mxPoint x="1890" y="370" as="targetPoint" />
          </mxGeometry>
        </mxCell>
        <mxCell id="din8F_Qt1sH1hLo-0JBV-100" value="1" style="text;html=1;strokeColor=none;fillColor=none;align=center;verticalAlign=middle;whiteSpace=wrap;rounded=0;" vertex="1" parent="1">
          <mxGeometry x="2070" y="200" width="40" height="20" as="geometry" />
        </mxCell>
        <mxCell id="din8F_Qt1sH1hLo-0JBV-101" value="1" style="text;html=1;strokeColor=none;fillColor=none;align=center;verticalAlign=middle;whiteSpace=wrap;rounded=0;" vertex="1" parent="1">
          <mxGeometry x="1660" y="280" width="40" height="20" as="geometry" />
        </mxCell>
        <mxCell id="din8F_Qt1sH1hLo-0JBV-102" value="Administration" style="rounded=0;whiteSpace=wrap;html=1;" vertex="1" parent="1">
          <mxGeometry x="1540" y="-100" width="170" height="100" as="geometry" />
        </mxCell>
        <mxCell id="din8F_Qt1sH1hLo-0JBV-103" value="has" style="rhombus;whiteSpace=wrap;html=1;" vertex="1" parent="1">
          <mxGeometry x="1585" y="40" width="80" height="80" as="geometry" />
        </mxCell>
        <mxCell id="din8F_Qt1sH1hLo-0JBV-104" value="" style="endArrow=none;html=1;exitX=0.5;exitY=1;exitDx=0;exitDy=0;entryX=0.5;entryY=0;entryDx=0;entryDy=0;" edge="1" parent="1" source="din8F_Qt1sH1hLo-0JBV-102" target="din8F_Qt1sH1hLo-0JBV-103">
          <mxGeometry width="50" height="50" relative="1" as="geometry">
            <mxPoint x="1700" y="210" as="sourcePoint" />
            <mxPoint x="1750" y="160" as="targetPoint" />
          </mxGeometry>
        </mxCell>
        <mxCell id="din8F_Qt1sH1hLo-0JBV-105" value="" style="endArrow=none;html=1;exitX=0.5;exitY=1;exitDx=0;exitDy=0;entryX=0.5;entryY=0;entryDx=0;entryDy=0;" edge="1" parent="1" source="din8F_Qt1sH1hLo-0JBV-103" target="din8F_Qt1sH1hLo-0JBV-79">
          <mxGeometry width="50" height="50" relative="1" as="geometry">
            <mxPoint x="1700" y="350" as="sourcePoint" />
            <mxPoint x="1750" y="300" as="targetPoint" />
          </mxGeometry>
        </mxCell>
        <mxCell id="din8F_Qt1sH1hLo-0JBV-106" value="Manage" style="rhombus;whiteSpace=wrap;html=1;" vertex="1" parent="1">
          <mxGeometry x="2470" y="460" width="130" height="110" as="geometry" />
        </mxCell>
        <mxCell id="din8F_Qt1sH1hLo-0JBV-107" value="" style="endArrow=none;html=1;exitX=1;exitY=0.5;exitDx=0;exitDy=0;entryX=0.5;entryY=0;entryDx=0;entryDy=0;" edge="1" parent="1" source="din8F_Qt1sH1hLo-0JBV-102" target="din8F_Qt1sH1hLo-0JBV-106">
          <mxGeometry width="50" height="50" relative="1" as="geometry">
            <mxPoint x="2020" y="350" as="sourcePoint" />
            <mxPoint x="2070" y="300" as="targetPoint" />
            <Array as="points">
              <mxPoint x="2360" y="-50" />
              <mxPoint x="2540" y="-50" />
            </Array>
          </mxGeometry>
        </mxCell>
        <mxCell id="din8F_Qt1sH1hLo-0JBV-108" value="" style="endArrow=none;html=1;exitX=0.75;exitY=0;exitDx=0;exitDy=0;entryX=0;entryY=0.5;entryDx=0;entryDy=0;" edge="1" parent="1" source="din8F_Qt1sH1hLo-0JBV-11" target="din8F_Qt1sH1hLo-0JBV-106">
          <mxGeometry width="50" height="50" relative="1" as="geometry">
            <mxPoint x="2020" y="620" as="sourcePoint" />
            <mxPoint x="2070" y="570" as="targetPoint" />
            <Array as="points">
              <mxPoint x="2240" y="515" />
            </Array>
          </mxGeometry>
        </mxCell>
        <mxCell id="din8F_Qt1sH1hLo-0JBV-109" value="M" style="text;html=1;strokeColor=none;fillColor=none;align=center;verticalAlign=middle;whiteSpace=wrap;rounded=0;" vertex="1" parent="1">
          <mxGeometry x="1710" y="-70" width="40" height="20" as="geometry" />
        </mxCell>
        <mxCell id="din8F_Qt1sH1hLo-0JBV-110" value="M" style="text;html=1;strokeColor=none;fillColor=none;align=center;verticalAlign=middle;whiteSpace=wrap;rounded=0;" vertex="1" parent="1">
          <mxGeometry x="2240" y="610" width="40" height="20" as="geometry" />
        </mxCell>
        <mxCell id="din8F_Qt1sH1hLo-0JBV-111" value="1" style="text;html=1;strokeColor=none;fillColor=none;align=center;verticalAlign=middle;whiteSpace=wrap;rounded=0;" vertex="1" parent="1">
          <mxGeometry x="2195" y="270" width="40" height="20" as="geometry" />
        </mxCell>
        <mxCell id="din8F_Qt1sH1hLo-0JBV-112" value="M" style="text;html=1;strokeColor=none;fillColor=none;align=center;verticalAlign=middle;whiteSpace=wrap;rounded=0;" vertex="1" parent="1">
          <mxGeometry x="2155" y="610" width="40" height="20" as="geometry" />
        </mxCell>
        <mxCell id="din8F_Qt1sH1hLo-0JBV-113" value="M" style="text;html=1;strokeColor=none;fillColor=none;align=center;verticalAlign=middle;whiteSpace=wrap;rounded=0;" vertex="1" parent="1">
          <mxGeometry x="1750" y="-30" width="40" height="20" as="geometry" />
        </mxCell>
        <mxCell id="din8F_Qt1sH1hLo-0JBV-115" value="M" style="text;html=1;strokeColor=none;fillColor=none;align=center;verticalAlign=middle;whiteSpace=wrap;rounded=0;" vertex="1" parent="1">
          <mxGeometry x="2070" y="660" width="40" height="20" as="geometry" />
        </mxCell>
        <mxCell id="din8F_Qt1sH1hLo-0JBV-116" value="M" style="text;html=1;strokeColor=none;fillColor=none;align=center;verticalAlign=middle;whiteSpace=wrap;rounded=0;" vertex="1" parent="1">
          <mxGeometry x="1710" y="660" width="40" height="20" as="geometry" />
        </mxCell>
        <mxCell id="din8F_Qt1sH1hLo-0JBV-117" value="&lt;u&gt;courseId&lt;/u&gt;" style="ellipse;whiteSpace=wrap;html=1;" vertex="1" parent="1">
          <mxGeometry x="1538" y="757.5" width="120" height="80" as="geometry" />
        </mxCell>
        <mxCell id="din8F_Qt1sH1hLo-0JBV-118" value="courseName" style="ellipse;whiteSpace=wrap;html=1;" vertex="1" parent="1">
          <mxGeometry x="1538" y="812.5" width="120" height="80" as="geometry" />
        </mxCell>
        <mxCell id="din8F_Qt1sH1hLo-0JBV-120" value="shortDescrip&lt;br&gt;" style="ellipse;whiteSpace=wrap;html=1;" vertex="1" parent="1">
          <mxGeometry x="1533" y="922.5" width="120" height="80" as="geometry" />
        </mxCell>
        <mxCell id="din8F_Qt1sH1hLo-0JBV-121" value="longDescrip&lt;br&gt;" style="ellipse;whiteSpace=wrap;html=1;" vertex="1" parent="1">
          <mxGeometry x="1533" y="982.5" width="120" height="80" as="geometry" />
        </mxCell>
        <mxCell id="din8F_Qt1sH1hLo-0JBV-122" value="numberOfStudent" style="ellipse;whiteSpace=wrap;html=1;" vertex="1" parent="1">
          <mxGeometry x="1980" y="1330" width="120" height="80" as="geometry" />
        </mxCell>
        <mxCell id="din8F_Qt1sH1hLo-0JBV-123" value="rating" style="ellipse;whiteSpace=wrap;html=1;" vertex="1" parent="1">
          <mxGeometry x="2420" y="1000" width="120" height="80" as="geometry" />
        </mxCell>
        <mxCell id="din8F_Qt1sH1hLo-0JBV-124" value="status(Null, BestSeller, HighestRated)" style="ellipse;whiteSpace=wrap;html=1;" vertex="1" parent="1">
          <mxGeometry x="2090" y="1330" width="120" height="80" as="geometry" />
        </mxCell>
        <mxCell id="din8F_Qt1sH1hLo-0JBV-125" value="languages" style="ellipse;whiteSpace=wrap;html=1;" vertex="1" parent="1">
          <mxGeometry x="1525" y="1110" width="120" height="80" as="geometry" />
        </mxCell>
        <mxCell id="din8F_Qt1sH1hLo-0JBV-126" value="lastUpdated" style="ellipse;whiteSpace=wrap;html=1;" vertex="1" parent="1">
          <mxGeometry x="2200" y="1330" width="120" height="80" as="geometry" />
        </mxCell>
        <mxCell id="din8F_Qt1sH1hLo-0JBV-127" value="CC" style="ellipse;whiteSpace=wrap;html=1;" vertex="1" parent="1">
          <mxGeometry x="1520" y="1180" width="120" height="80" as="geometry" />
        </mxCell>
        <mxCell id="din8F_Qt1sH1hLo-0JBV-128" value="price" style="ellipse;whiteSpace=wrap;html=1;" vertex="1" parent="1">
          <mxGeometry x="1543" y="867.5" width="115" height="70" as="geometry" />
        </mxCell>
        <mxCell id="din8F_Qt1sH1hLo-0JBV-130" value="&lt;u&gt;idPayment&lt;/u&gt;" style="ellipse;whiteSpace=wrap;html=1;" vertex="1" parent="1">
          <mxGeometry x="1390" y="630" width="120" height="80" as="geometry" />
        </mxCell>
        <mxCell id="din8F_Qt1sH1hLo-0JBV-131" value="Method" style="ellipse;whiteSpace=wrap;html=1;" vertex="1" parent="1">
          <mxGeometry x="1390" y="690" width="120" height="80" as="geometry" />
        </mxCell>
        <mxCell id="din8F_Qt1sH1hLo-0JBV-132" value="&lt;u&gt;Gmail&lt;/u&gt;" style="ellipse;whiteSpace=wrap;html=1;" vertex="1" parent="1">
          <mxGeometry x="1550" y="195" width="70" height="30" as="geometry" />
        </mxCell>
        <mxCell id="din8F_Qt1sH1hLo-0JBV-133" value="Name" style="ellipse;whiteSpace=wrap;html=1;" vertex="1" parent="1">
          <mxGeometry x="1500" y="205" width="60" height="35" as="geometry" />
        </mxCell>
        <mxCell id="din8F_Qt1sH1hLo-0JBV-134" value="Photo" style="ellipse;whiteSpace=wrap;html=1;" vertex="1" parent="1">
          <mxGeometry x="1455" y="225" width="70" height="40" as="geometry" />
        </mxCell>
        <mxCell id="din8F_Qt1sH1hLo-0JBV-135" value="" style="endArrow=none;html=1;exitX=0.5;exitY=1;exitDx=0;exitDy=0;" edge="1" parent="1" source="din8F_Qt1sH1hLo-0JBV-132">
          <mxGeometry width="50" height="50" relative="1" as="geometry">
            <mxPoint x="1580" y="370" as="sourcePoint" />
            <mxPoint x="1583" y="300" as="targetPoint" />
          </mxGeometry>
        </mxCell>
        <mxCell id="din8F_Qt1sH1hLo-0JBV-136" value="" style="endArrow=none;html=1;exitX=1;exitY=1;exitDx=0;exitDy=0;entryX=0.25;entryY=0;entryDx=0;entryDy=0;" edge="1" parent="1" source="din8F_Qt1sH1hLo-0JBV-133" target="din8F_Qt1sH1hLo-0JBV-79">
          <mxGeometry width="50" height="50" relative="1" as="geometry">
            <mxPoint x="1575" y="240" as="sourcePoint" />
            <mxPoint x="1592.5" y="310" as="targetPoint" />
          </mxGeometry>
        </mxCell>
        <mxCell id="din8F_Qt1sH1hLo-0JBV-138" value="" style="endArrow=none;html=1;exitX=1;exitY=1;exitDx=0;exitDy=0;entryX=0.25;entryY=0;entryDx=0;entryDy=0;" edge="1" parent="1" source="din8F_Qt1sH1hLo-0JBV-134" target="din8F_Qt1sH1hLo-0JBV-79">
          <mxGeometry width="50" height="50" relative="1" as="geometry">
            <mxPoint x="1551.5183814257769" y="259.6937494746069" as="sourcePoint" />
            <mxPoint x="1593.386631871416" y="310" as="targetPoint" />
          </mxGeometry>
        </mxCell>
        <mxCell id="din8F_Qt1sH1hLo-0JBV-141" value="Field" style="rounded=0;whiteSpace=wrap;html=1;" vertex="1" parent="1">
          <mxGeometry x="2670" y="800" width="150" height="80" as="geometry" />
        </mxCell>
        <mxCell id="din8F_Qt1sH1hLo-0JBV-142" value="numberOfLessons" style="ellipse;whiteSpace=wrap;html=1;" vertex="1" parent="1">
          <mxGeometry x="1525" y="1050" width="120" height="80" as="geometry" />
        </mxCell>
        <mxCell id="din8F_Qt1sH1hLo-0JBV-143" value="urlViedoLesson" style="ellipse;whiteSpace=wrap;html=1;" vertex="1" parent="1">
          <mxGeometry x="2810" y="640" width="120" height="80" as="geometry" />
        </mxCell>
        <mxCell id="din8F_Qt1sH1hLo-0JBV-144" value="&lt;u&gt;GeneralField&lt;/u&gt;" style="ellipse;whiteSpace=wrap;html=1;" vertex="1" parent="1">
          <mxGeometry x="2900" y="760" width="120" height="80" as="geometry" />
        </mxCell>
        <mxCell id="din8F_Qt1sH1hLo-0JBV-145" value="DetailsField" style="ellipse;whiteSpace=wrap;html=1;" vertex="1" parent="1">
          <mxGeometry x="2900" y="837.5" width="120" height="80" as="geometry" />
        </mxCell>
        <mxCell id="din8F_Qt1sH1hLo-0JBV-147" value="" style="endArrow=none;html=1;exitX=1;exitY=0.5;exitDx=0;exitDy=0;entryX=0;entryY=0.5;entryDx=0;entryDy=0;" edge="1" parent="1" source="din8F_Qt1sH1hLo-0JBV-130" target="din8F_Qt1sH1hLo-0JBV-78">
          <mxGeometry width="50" height="50" relative="1" as="geometry">
            <mxPoint x="1710" y="610" as="sourcePoint" />
            <mxPoint x="1760" y="560" as="targetPoint" />
          </mxGeometry>
        </mxCell>
        <mxCell id="din8F_Qt1sH1hLo-0JBV-148" value="" style="endArrow=none;html=1;exitX=1;exitY=0.5;exitDx=0;exitDy=0;entryX=0;entryY=0.5;entryDx=0;entryDy=0;" edge="1" parent="1" source="din8F_Qt1sH1hLo-0JBV-131" target="din8F_Qt1sH1hLo-0JBV-78">
          <mxGeometry width="50" height="50" relative="1" as="geometry">
            <mxPoint x="1519.9999999999955" y="680" as="sourcePoint" />
            <mxPoint x="1550" y="690" as="targetPoint" />
          </mxGeometry>
        </mxCell>
        <mxCell id="din8F_Qt1sH1hLo-0JBV-151" value="" style="endArrow=none;html=1;entryX=0;entryY=0.5;entryDx=0;entryDy=0;exitX=1;exitY=0.5;exitDx=0;exitDy=0;" edge="1" parent="1" source="din8F_Qt1sH1hLo-0JBV-141" target="din8F_Qt1sH1hLo-0JBV-144">
          <mxGeometry width="50" height="50" relative="1" as="geometry">
            <mxPoint x="2620" y="870" as="sourcePoint" />
            <mxPoint x="2670" y="820" as="targetPoint" />
          </mxGeometry>
        </mxCell>
        <mxCell id="din8F_Qt1sH1hLo-0JBV-152" value="" style="endArrow=none;html=1;entryX=0;entryY=0.5;entryDx=0;entryDy=0;exitX=1;exitY=0.5;exitDx=0;exitDy=0;" edge="1" parent="1" source="din8F_Qt1sH1hLo-0JBV-141" target="din8F_Qt1sH1hLo-0JBV-145">
          <mxGeometry width="50" height="50" relative="1" as="geometry">
            <mxPoint x="2620" y="870" as="sourcePoint" />
            <mxPoint x="2670" y="820" as="targetPoint" />
          </mxGeometry>
        </mxCell>
        <mxCell id="din8F_Qt1sH1hLo-0JBV-153" value="" style="endArrow=none;html=1;exitX=0.5;exitY=1;exitDx=0;exitDy=0;entryX=0;entryY=0.5;entryDx=0;entryDy=0;" edge="1" parent="1" source="din8F_Qt1sH1hLo-0JBV-11" target="din8F_Qt1sH1hLo-0JBV-154">
          <mxGeometry width="50" height="50" relative="1" as="geometry">
            <mxPoint x="2420" y="850" as="sourcePoint" />
            <mxPoint x="2470" y="800" as="targetPoint" />
            <Array as="points">
              <mxPoint x="2195" y="840" />
            </Array>
          </mxGeometry>
        </mxCell>
        <mxCell id="din8F_Qt1sH1hLo-0JBV-154" value="belong to" style="rhombus;whiteSpace=wrap;html=1;" vertex="1" parent="1">
          <mxGeometry x="2410" y="790" width="120" height="100" as="geometry" />
        </mxCell>
        <mxCell id="din8F_Qt1sH1hLo-0JBV-155" value="" style="endArrow=none;html=1;exitX=0;exitY=0.5;exitDx=0;exitDy=0;entryX=1;entryY=0.5;entryDx=0;entryDy=0;" edge="1" parent="1" source="din8F_Qt1sH1hLo-0JBV-141" target="din8F_Qt1sH1hLo-0JBV-154">
          <mxGeometry width="50" height="50" relative="1" as="geometry">
            <mxPoint x="2420" y="850" as="sourcePoint" />
            <mxPoint x="2470" y="800" as="targetPoint" />
          </mxGeometry>
        </mxCell>
        <mxCell id="din8F_Qt1sH1hLo-0JBV-156" value="1" style="text;html=1;strokeColor=none;fillColor=none;align=center;verticalAlign=middle;whiteSpace=wrap;rounded=0;" vertex="1" parent="1">
          <mxGeometry x="2195" y="730" width="40" height="20" as="geometry" />
        </mxCell>
        <mxCell id="din8F_Qt1sH1hLo-0JBV-157" value="M" style="text;html=1;strokeColor=none;fillColor=none;align=center;verticalAlign=middle;whiteSpace=wrap;rounded=0;" vertex="1" parent="1">
          <mxGeometry x="2630" y="820" width="40" height="20" as="geometry" />
        </mxCell>
        <mxCell id="din8F_Qt1sH1hLo-0JBV-158" value="stuReview" style="ellipse;whiteSpace=wrap;html=1;" vertex="1" parent="1">
          <mxGeometry x="2420" y="1070" width="120" height="80" as="geometry" />
        </mxCell>
        <mxCell id="din8F_Qt1sH1hLo-0JBV-159" value="" style="endArrow=none;html=1;exitX=1;exitY=0.5;exitDx=0;exitDy=0;entryX=0;entryY=1;entryDx=0;entryDy=0;" edge="1" parent="1" source="din8F_Qt1sH1hLo-0JBV-117" target="din8F_Qt1sH1hLo-0JBV-11">
          <mxGeometry width="50" height="50" relative="1" as="geometry">
            <mxPoint x="2080" y="900" as="sourcePoint" />
            <mxPoint x="2130" y="850" as="targetPoint" />
          </mxGeometry>
        </mxCell>
        <mxCell id="din8F_Qt1sH1hLo-0JBV-160" value="" style="endArrow=none;html=1;exitX=1;exitY=0;exitDx=0;exitDy=0;entryX=0;entryY=1;entryDx=0;entryDy=0;" edge="1" parent="1" source="din8F_Qt1sH1hLo-0JBV-118" target="din8F_Qt1sH1hLo-0JBV-11">
          <mxGeometry width="50" height="50" relative="1" as="geometry">
            <mxPoint x="1800.0000000000005" y="819.9999999999995" as="sourcePoint" />
            <mxPoint x="2120" y="739.9999999999995" as="targetPoint" />
          </mxGeometry>
        </mxCell>
        <mxCell id="din8F_Qt1sH1hLo-0JBV-161" value="" style="endArrow=none;html=1;exitX=1;exitY=0.5;exitDx=0;exitDy=0;entryX=0;entryY=1;entryDx=0;entryDy=0;" edge="1" parent="1" source="din8F_Qt1sH1hLo-0JBV-128" target="din8F_Qt1sH1hLo-0JBV-11">
          <mxGeometry width="50" height="50" relative="1" as="geometry">
            <mxPoint x="1810.0000000000005" y="829.9999999999995" as="sourcePoint" />
            <mxPoint x="2130" y="749.9999999999995" as="targetPoint" />
          </mxGeometry>
        </mxCell>
        <mxCell id="din8F_Qt1sH1hLo-0JBV-163" value="" style="endArrow=none;html=1;exitX=1;exitY=0;exitDx=0;exitDy=0;entryX=0;entryY=1;entryDx=0;entryDy=0;" edge="1" parent="1" source="din8F_Qt1sH1hLo-0JBV-121" target="din8F_Qt1sH1hLo-0JBV-11">
          <mxGeometry width="50" height="50" relative="1" as="geometry">
            <mxPoint x="1830.0000000000005" y="849.9999999999995" as="sourcePoint" />
            <mxPoint x="2150" y="769.9999999999995" as="targetPoint" />
          </mxGeometry>
        </mxCell>
        <mxCell id="din8F_Qt1sH1hLo-0JBV-164" value="" style="endArrow=none;html=1;exitX=1;exitY=0;exitDx=0;exitDy=0;entryX=0;entryY=1;entryDx=0;entryDy=0;" edge="1" parent="1" source="din8F_Qt1sH1hLo-0JBV-120" target="din8F_Qt1sH1hLo-0JBV-11">
          <mxGeometry width="50" height="50" relative="1" as="geometry">
            <mxPoint x="1840.0000000000005" y="859.9999999999995" as="sourcePoint" />
            <mxPoint x="2160" y="779.9999999999995" as="targetPoint" />
          </mxGeometry>
        </mxCell>
        <mxCell id="din8F_Qt1sH1hLo-0JBV-165" value="" style="endArrow=none;html=1;entryX=0;entryY=1;entryDx=0;entryDy=0;" edge="1" parent="1" source="din8F_Qt1sH1hLo-0JBV-125" target="din8F_Qt1sH1hLo-0JBV-11">
          <mxGeometry width="50" height="50" relative="1" as="geometry">
            <mxPoint x="1850.0000000000005" y="869.9999999999995" as="sourcePoint" />
            <mxPoint x="2170" y="789.9999999999995" as="targetPoint" />
          </mxGeometry>
        </mxCell>
        <mxCell id="din8F_Qt1sH1hLo-0JBV-166" value="" style="endArrow=none;html=1;entryX=0;entryY=1;entryDx=0;entryDy=0;" edge="1" parent="1" source="din8F_Qt1sH1hLo-0JBV-127" target="din8F_Qt1sH1hLo-0JBV-11">
          <mxGeometry width="50" height="50" relative="1" as="geometry">
            <mxPoint x="1860.0000000000005" y="879.9999999999995" as="sourcePoint" />
            <mxPoint x="2180" y="799.9999999999995" as="targetPoint" />
          </mxGeometry>
        </mxCell>
        <mxCell id="din8F_Qt1sH1hLo-0JBV-167" value="" style="endArrow=none;html=1;entryX=0;entryY=1;entryDx=0;entryDy=0;exitX=0.5;exitY=0;exitDx=0;exitDy=0;" edge="1" parent="1" source="din8F_Qt1sH1hLo-0JBV-142" target="din8F_Qt1sH1hLo-0JBV-11">
          <mxGeometry width="50" height="50" relative="1" as="geometry">
            <mxPoint x="1891.5812768769897" y="985.9893941324731" as="sourcePoint" />
            <mxPoint x="2120" y="740" as="targetPoint" />
          </mxGeometry>
        </mxCell>
        <mxCell id="din8F_Qt1sH1hLo-0JBV-168" value="Reviews" style="rounded=0;whiteSpace=wrap;html=1;" vertex="1" parent="1">
          <mxGeometry x="2165" y="1000" width="140" height="90" as="geometry" />
        </mxCell>
        <mxCell id="din8F_Qt1sH1hLo-0JBV-169" value="" style="endArrow=none;html=1;exitX=0;exitY=0.5;exitDx=0;exitDy=0;" edge="1" parent="1" source="din8F_Qt1sH1hLo-0JBV-170" target="din8F_Qt1sH1hLo-0JBV-11">
          <mxGeometry width="50" height="50" relative="1" as="geometry">
            <mxPoint x="2050" y="840" as="sourcePoint" />
            <mxPoint x="2150" y="730" as="targetPoint" />
          </mxGeometry>
        </mxCell>
        <mxCell id="din8F_Qt1sH1hLo-0JBV-170" value="has" style="rhombus;whiteSpace=wrap;html=1;" vertex="1" parent="1">
          <mxGeometry x="2195" y="870" width="80" height="80" as="geometry" />
        </mxCell>
        <mxCell id="din8F_Qt1sH1hLo-0JBV-171" value="" style="endArrow=none;html=1;entryX=0.5;entryY=1;entryDx=0;entryDy=0;exitX=0.5;exitY=0;exitDx=0;exitDy=0;" edge="1" parent="1" source="din8F_Qt1sH1hLo-0JBV-168" target="din8F_Qt1sH1hLo-0JBV-170">
          <mxGeometry width="50" height="50" relative="1" as="geometry">
            <mxPoint x="2050" y="840" as="sourcePoint" />
            <mxPoint x="2100" y="790" as="targetPoint" />
          </mxGeometry>
        </mxCell>
        <mxCell id="din8F_Qt1sH1hLo-0JBV-172" value="1" style="text;html=1;strokeColor=none;fillColor=none;align=center;verticalAlign=middle;whiteSpace=wrap;rounded=0;" vertex="1" parent="1">
          <mxGeometry x="2160" y="730" width="40" height="20" as="geometry" />
        </mxCell>
        <mxCell id="din8F_Qt1sH1hLo-0JBV-174" value="M" style="text;html=1;strokeColor=none;fillColor=none;align=center;verticalAlign=middle;whiteSpace=wrap;rounded=0;" vertex="1" parent="1">
          <mxGeometry x="2200" y="980" width="40" height="20" as="geometry" />
        </mxCell>
        <mxCell id="din8F_Qt1sH1hLo-0JBV-175" value="" style="endArrow=none;html=1;entryX=0;entryY=0.5;entryDx=0;entryDy=0;exitX=1;exitY=0.5;exitDx=0;exitDy=0;" edge="1" parent="1" source="din8F_Qt1sH1hLo-0JBV-168" target="din8F_Qt1sH1hLo-0JBV-123">
          <mxGeometry width="50" height="50" relative="1" as="geometry">
            <mxPoint x="2050" y="1040" as="sourcePoint" />
            <mxPoint x="2100" y="990" as="targetPoint" />
          </mxGeometry>
        </mxCell>
        <mxCell id="din8F_Qt1sH1hLo-0JBV-177" value="" style="endArrow=none;html=1;entryX=0;entryY=0.5;entryDx=0;entryDy=0;exitX=1;exitY=0.5;exitDx=0;exitDy=0;" edge="1" parent="1" source="din8F_Qt1sH1hLo-0JBV-168" target="din8F_Qt1sH1hLo-0JBV-158">
          <mxGeometry width="50" height="50" relative="1" as="geometry">
            <mxPoint x="2230" y="1045" as="sourcePoint" />
            <mxPoint x="2310" y="1010" as="targetPoint" />
          </mxGeometry>
        </mxCell>
        <mxCell id="din8F_Qt1sH1hLo-0JBV-180" value="&lt;u&gt;idReview&lt;/u&gt;" style="ellipse;whiteSpace=wrap;html=1;" vertex="1" parent="1">
          <mxGeometry x="2420" y="930" width="120" height="80" as="geometry" />
        </mxCell>
        <mxCell id="din8F_Qt1sH1hLo-0JBV-181" value="" style="endArrow=none;html=1;entryX=0;entryY=0.5;entryDx=0;entryDy=0;exitX=1;exitY=0.5;exitDx=0;exitDy=0;" edge="1" parent="1" source="din8F_Qt1sH1hLo-0JBV-168" target="din8F_Qt1sH1hLo-0JBV-180">
          <mxGeometry width="50" height="50" relative="1" as="geometry">
            <mxPoint x="2230" y="1045" as="sourcePoint" />
            <mxPoint x="2310" y="1010" as="targetPoint" />
          </mxGeometry>
        </mxCell>
        <mxCell id="din8F_Qt1sH1hLo-0JBV-182" value="Status" style="rounded=0;whiteSpace=wrap;html=1;" vertex="1" parent="1">
          <mxGeometry x="2040" y="1200" width="140" height="90" as="geometry" />
        </mxCell>
        <mxCell id="din8F_Qt1sH1hLo-0JBV-183" value="has" style="rhombus;whiteSpace=wrap;html=1;" vertex="1" parent="1">
          <mxGeometry x="2070" y="920" width="80" height="80" as="geometry" />
        </mxCell>
        <mxCell id="din8F_Qt1sH1hLo-0JBV-184" value="" style="endArrow=none;html=1;entryX=0.25;entryY=1;entryDx=0;entryDy=0;exitX=0.5;exitY=0;exitDx=0;exitDy=0;" edge="1" parent="1" source="din8F_Qt1sH1hLo-0JBV-183" target="din8F_Qt1sH1hLo-0JBV-11">
          <mxGeometry width="50" height="50" relative="1" as="geometry">
            <mxPoint x="2130" y="990" as="sourcePoint" />
            <mxPoint x="2180" y="940" as="targetPoint" />
            <Array as="points">
              <mxPoint x="2153" y="920" />
            </Array>
          </mxGeometry>
        </mxCell>
        <mxCell id="din8F_Qt1sH1hLo-0JBV-186" value="" style="endArrow=none;html=1;exitX=0.5;exitY=1;exitDx=0;exitDy=0;entryX=0.5;entryY=0;entryDx=0;entryDy=0;" edge="1" parent="1" source="din8F_Qt1sH1hLo-0JBV-183" target="din8F_Qt1sH1hLo-0JBV-182">
          <mxGeometry width="50" height="50" relative="1" as="geometry">
            <mxPoint x="2130" y="990" as="sourcePoint" />
            <mxPoint x="2180" y="940" as="targetPoint" />
          </mxGeometry>
        </mxCell>
        <mxCell id="din8F_Qt1sH1hLo-0JBV-187" value="" style="endArrow=none;html=1;exitX=0.5;exitY=1;exitDx=0;exitDy=0;entryX=0.5;entryY=0;entryDx=0;entryDy=0;" edge="1" parent="1" source="din8F_Qt1sH1hLo-0JBV-182" target="din8F_Qt1sH1hLo-0JBV-122">
          <mxGeometry width="50" height="50" relative="1" as="geometry">
            <mxPoint x="2130" y="1140" as="sourcePoint" />
            <mxPoint x="2180" y="1090" as="targetPoint" />
          </mxGeometry>
        </mxCell>
        <mxCell id="din8F_Qt1sH1hLo-0JBV-188" value="" style="endArrow=none;html=1;exitX=0.5;exitY=1;exitDx=0;exitDy=0;entryX=0.5;entryY=0;entryDx=0;entryDy=0;" edge="1" parent="1" source="din8F_Qt1sH1hLo-0JBV-182" target="din8F_Qt1sH1hLo-0JBV-124">
          <mxGeometry width="50" height="50" relative="1" as="geometry">
            <mxPoint x="2100" y="1299.9999999999995" as="sourcePoint" />
            <mxPoint x="2040" y="1339.9999999999995" as="targetPoint" />
          </mxGeometry>
        </mxCell>
        <mxCell id="din8F_Qt1sH1hLo-0JBV-190" value="&lt;u&gt;idStatus&lt;/u&gt;" style="ellipse;whiteSpace=wrap;html=1;" vertex="1" parent="1">
          <mxGeometry x="1860" y="1330" width="120" height="80" as="geometry" />
        </mxCell>
        <mxCell id="din8F_Qt1sH1hLo-0JBV-191" value="" style="endArrow=none;html=1;exitX=0.5;exitY=0;exitDx=0;exitDy=0;entryX=0.5;entryY=1;entryDx=0;entryDy=0;" edge="1" parent="1" source="din8F_Qt1sH1hLo-0JBV-190" target="din8F_Qt1sH1hLo-0JBV-182">
          <mxGeometry width="50" height="50" relative="1" as="geometry">
            <mxPoint x="2060" y="1090" as="sourcePoint" />
            <mxPoint x="2110" y="1040" as="targetPoint" />
          </mxGeometry>
        </mxCell>
        <mxCell id="din8F_Qt1sH1hLo-0JBV-192" value="uploadDateCourse" style="ellipse;whiteSpace=wrap;html=1;" vertex="1" parent="1">
          <mxGeometry x="2660" y="340" width="120" height="80" as="geometry" />
        </mxCell>
        <mxCell id="din8F_Qt1sH1hLo-0JBV-193" value="" style="endArrow=none;html=1;exitX=0;exitY=1;exitDx=0;exitDy=0;entryX=1;entryY=0.5;entryDx=0;entryDy=0;" edge="1" parent="1" source="din8F_Qt1sH1hLo-0JBV-192" target="din8F_Qt1sH1hLo-0JBV-106">
          <mxGeometry width="50" height="50" relative="1" as="geometry">
            <mxPoint x="2490" y="700" as="sourcePoint" />
            <mxPoint x="2600" y="680" as="targetPoint" />
          </mxGeometry>
        </mxCell>
        <mxCell id="din8F_Qt1sH1hLo-0JBV-194" value="Age" style="ellipse;whiteSpace=wrap;html=1;" vertex="1" parent="1">
          <mxGeometry x="1430" y="250" width="70" height="40" as="geometry" />
        </mxCell>
        <mxCell id="din8F_Qt1sH1hLo-0JBV-195" value="" style="endArrow=none;html=1;exitX=1;exitY=0.5;exitDx=0;exitDy=0;entryX=0.25;entryY=0;entryDx=0;entryDy=0;" edge="1" parent="1" source="din8F_Qt1sH1hLo-0JBV-194" target="din8F_Qt1sH1hLo-0JBV-79">
          <mxGeometry width="50" height="50" relative="1" as="geometry">
            <mxPoint x="1760" y="300" as="sourcePoint" />
            <mxPoint x="1810" y="250" as="targetPoint" />
          </mxGeometry>
        </mxCell>
        <mxCell id="din8F_Qt1sH1hLo-0JBV-196" value="" style="endArrow=none;html=1;exitX=0.5;exitY=0;exitDx=0;exitDy=0;entryX=0.5;entryY=1;entryDx=0;entryDy=0;" edge="1" parent="1" source="din8F_Qt1sH1hLo-0JBV-126" target="din8F_Qt1sH1hLo-0JBV-182">
          <mxGeometry width="50" height="50" relative="1" as="geometry">
            <mxPoint x="1910" y="1140" as="sourcePoint" />
            <mxPoint x="1960" y="1090" as="targetPoint" />
          </mxGeometry>
        </mxCell>
        <mxCell id="din8F_Qt1sH1hLo-0JBV-197" value="ratingAvg" style="ellipse;whiteSpace=wrap;html=1;" vertex="1" parent="1">
          <mxGeometry x="2310" y="1330" width="120" height="80" as="geometry" />
        </mxCell>
        <mxCell id="din8F_Qt1sH1hLo-0JBV-198" value="" style="endArrow=none;html=1;exitX=0.5;exitY=1;exitDx=0;exitDy=0;entryX=0.5;entryY=0;entryDx=0;entryDy=0;" edge="1" parent="1" source="din8F_Qt1sH1hLo-0JBV-182" target="din8F_Qt1sH1hLo-0JBV-197">
          <mxGeometry width="50" height="50" relative="1" as="geometry">
            <mxPoint x="2210" y="1260" as="sourcePoint" />
            <mxPoint x="2260" y="1210" as="targetPoint" />
          </mxGeometry>
        </mxCell>
        <mxCell id="din8F_Qt1sH1hLo-0JBV-202" value="Lesson" style="rounded=0;whiteSpace=wrap;html=1;" vertex="1" parent="1">
          <mxGeometry x="2530" y="635" width="140" height="90" as="geometry" />
        </mxCell>
        <mxCell id="din8F_Qt1sH1hLo-0JBV-203" value="lessonTitle&lt;br&gt;" style="ellipse;whiteSpace=wrap;html=1;" vertex="1" parent="1">
          <mxGeometry x="2810" y="580" width="120" height="80" as="geometry" />
        </mxCell>
        <mxCell id="din8F_Qt1sH1hLo-0JBV-206" value="Note" style="ellipse;whiteSpace=wrap;html=1;" vertex="1" parent="1">
          <mxGeometry x="2820" y="695" width="100" height="70" as="geometry" />
        </mxCell>
        <mxCell id="din8F_Qt1sH1hLo-0JBV-210" value="" style="endArrow=none;html=1;exitX=1;exitY=0.5;exitDx=0;exitDy=0;entryX=0;entryY=0.5;entryDx=0;entryDy=0;" edge="1" parent="1" source="din8F_Qt1sH1hLo-0JBV-11" target="din8F_Qt1sH1hLo-0JBV-211">
          <mxGeometry width="50" height="50" relative="1" as="geometry">
            <mxPoint x="2400" y="790" as="sourcePoint" />
            <mxPoint x="2370" y="680" as="targetPoint" />
          </mxGeometry>
        </mxCell>
        <mxCell id="din8F_Qt1sH1hLo-0JBV-211" value="has" style="rhombus;whiteSpace=wrap;html=1;" vertex="1" parent="1">
          <mxGeometry x="2370" y="640" width="80" height="80" as="geometry" />
        </mxCell>
        <mxCell id="din8F_Qt1sH1hLo-0JBV-212" value="" style="endArrow=none;html=1;entryX=0;entryY=0.5;entryDx=0;entryDy=0;exitX=1;exitY=0.5;exitDx=0;exitDy=0;" edge="1" parent="1" source="din8F_Qt1sH1hLo-0JBV-211" target="din8F_Qt1sH1hLo-0JBV-202">
          <mxGeometry width="50" height="50" relative="1" as="geometry">
            <mxPoint x="2400" y="790" as="sourcePoint" />
            <mxPoint x="2450" y="740" as="targetPoint" />
          </mxGeometry>
        </mxCell>
        <mxCell id="din8F_Qt1sH1hLo-0JBV-213" value="1" style="text;html=1;strokeColor=none;fillColor=none;align=center;verticalAlign=middle;whiteSpace=wrap;rounded=0;" vertex="1" parent="1">
          <mxGeometry x="2280" y="660" width="40" height="20" as="geometry" />
        </mxCell>
        <mxCell id="din8F_Qt1sH1hLo-0JBV-214" value="M" style="text;html=1;strokeColor=none;fillColor=none;align=center;verticalAlign=middle;whiteSpace=wrap;rounded=0;" vertex="1" parent="1">
          <mxGeometry x="2490" y="660" width="40" height="20" as="geometry" />
        </mxCell>
        <mxCell id="din8F_Qt1sH1hLo-0JBV-217" value="" style="endArrow=none;html=1;entryX=0;entryY=0.5;entryDx=0;entryDy=0;exitX=1;exitY=0.5;exitDx=0;exitDy=0;" edge="1" parent="1" source="din8F_Qt1sH1hLo-0JBV-202" target="din8F_Qt1sH1hLo-0JBV-203">
          <mxGeometry width="50" height="50" relative="1" as="geometry">
            <mxPoint x="2670" y="680" as="sourcePoint" />
            <mxPoint x="2750" y="560" as="targetPoint" />
          </mxGeometry>
        </mxCell>
        <mxCell id="din8F_Qt1sH1hLo-0JBV-218" value="" style="endArrow=none;html=1;entryX=0;entryY=0.5;entryDx=0;entryDy=0;exitX=1;exitY=0.5;exitDx=0;exitDy=0;" edge="1" parent="1" source="din8F_Qt1sH1hLo-0JBV-202" target="din8F_Qt1sH1hLo-0JBV-143">
          <mxGeometry width="50" height="50" relative="1" as="geometry">
            <mxPoint x="2690" y="700" as="sourcePoint" />
            <mxPoint x="2760" y="570" as="targetPoint" />
          </mxGeometry>
        </mxCell>
        <mxCell id="din8F_Qt1sH1hLo-0JBV-219" value="" style="endArrow=none;html=1;entryX=0;entryY=0.5;entryDx=0;entryDy=0;exitX=1;exitY=0.5;exitDx=0;exitDy=0;" edge="1" parent="1" source="din8F_Qt1sH1hLo-0JBV-202" target="din8F_Qt1sH1hLo-0JBV-206">
          <mxGeometry width="50" height="50" relative="1" as="geometry">
            <mxPoint x="2700" y="710" as="sourcePoint" />
            <mxPoint x="2770" y="580" as="targetPoint" />
          </mxGeometry>
        </mxCell>
        <mxCell id="din8F_Qt1sH1hLo-0JBV-220" value="&lt;u&gt;Number&lt;/u&gt;" style="ellipse;whiteSpace=wrap;html=1;" vertex="1" parent="1">
          <mxGeometry x="2810" y="510" width="120" height="80" as="geometry" />
        </mxCell>
        <mxCell id="din8F_Qt1sH1hLo-0JBV-221" value="" style="endArrow=none;html=1;entryX=0;entryY=0.5;entryDx=0;entryDy=0;exitX=1;exitY=0.5;exitDx=0;exitDy=0;" edge="1" parent="1" source="din8F_Qt1sH1hLo-0JBV-202" target="din8F_Qt1sH1hLo-0JBV-220">
          <mxGeometry width="50" height="50" relative="1" as="geometry">
            <mxPoint x="2350" y="590" as="sourcePoint" />
            <mxPoint x="2400" y="540" as="targetPoint" />
          </mxGeometry>
        </mxCell>
        <mxCell id="din8F_Qt1sH1hLo-0JBV-222" value="removeCourseDate" style="ellipse;whiteSpace=wrap;html=1;" vertex="1" parent="1">
          <mxGeometry x="2680" y="420" width="120" height="80" as="geometry" />
        </mxCell>
        <mxCell id="din8F_Qt1sH1hLo-0JBV-224" value="" style="endArrow=none;html=1;entryX=0;entryY=0.5;entryDx=0;entryDy=0;exitX=1;exitY=0.5;exitDx=0;exitDy=0;" edge="1" parent="1" source="din8F_Qt1sH1hLo-0JBV-106" target="din8F_Qt1sH1hLo-0JBV-222">
          <mxGeometry width="50" height="50" relative="1" as="geometry">
            <mxPoint x="2350" y="490" as="sourcePoint" />
            <mxPoint x="2400" y="440" as="targetPoint" />
          </mxGeometry>
        </mxCell>
        <mxCell id="din8F_Qt1sH1hLo-0JBV-225" value="" style="endArrow=none;html=1;exitX=1;exitY=0.5;exitDx=0;exitDy=0;entryX=0;entryY=0.5;entryDx=0;entryDy=0;" edge="1" parent="1" source="din8F_Qt1sH1hLo-0JBV-79" target="din8F_Qt1sH1hLo-0JBV-226">
          <mxGeometry width="50" height="50" relative="1" as="geometry">
            <mxPoint x="1820" y="430" as="sourcePoint" />
            <mxPoint x="1870" y="480" as="targetPoint" />
          </mxGeometry>
        </mxCell>
        <mxCell id="din8F_Qt1sH1hLo-0JBV-226" value="own" style="rhombus;whiteSpace=wrap;html=1;rotation=30;" vertex="1" parent="1">
          <mxGeometry x="1850" y="430" width="80" height="80" as="geometry" />
        </mxCell>
        <mxCell id="din8F_Qt1sH1hLo-0JBV-227" value="" style="endArrow=none;html=1;entryX=0;entryY=0;entryDx=0;entryDy=0;exitX=1;exitY=0.5;exitDx=0;exitDy=0;" edge="1" parent="1" source="din8F_Qt1sH1hLo-0JBV-226" target="din8F_Qt1sH1hLo-0JBV-11">
          <mxGeometry width="50" height="50" relative="1" as="geometry">
            <mxPoint x="1820" y="430" as="sourcePoint" />
            <mxPoint x="1870" y="380" as="targetPoint" />
          </mxGeometry>
        </mxCell>
        <mxCell id="din8F_Qt1sH1hLo-0JBV-228" value="M" style="text;html=1;strokeColor=none;fillColor=none;align=center;verticalAlign=middle;whiteSpace=wrap;rounded=0;" vertex="1" parent="1">
          <mxGeometry x="1710" y="330" width="40" height="20" as="geometry" />
        </mxCell>
        <mxCell id="din8F_Qt1sH1hLo-0JBV-229" value="M" style="text;html=1;strokeColor=none;fillColor=none;align=center;verticalAlign=middle;whiteSpace=wrap;rounded=0;" vertex="1" parent="1">
          <mxGeometry x="2100" y="610" width="40" height="20" as="geometry" />
        </mxCell>
      </root>
    </mxGraphModel>
  </diagram>
</mxfile>
